<?xml version="1.0" encoding="UTF-8" standalone="no"?>
<!-- Created with Inkscape (http://www.inkscape.org/) -->

<svg
   xmlns:dc="http://purl.org/dc/elements/1.1/"
   xmlns:cc="http://creativecommons.org/ns#"
   xmlns:rdf="http://www.w3.org/1999/02/22-rdf-syntax-ns#"
   xmlns:svg="http://www.w3.org/2000/svg"
   xmlns="http://www.w3.org/2000/svg"
   xmlns:sodipodi="http://sodipodi.sourceforge.net/DTD/sodipodi-0.dtd"
   xmlns:inkscape="http://www.inkscape.org/namespaces/inkscape"
   version="1.1"
   id="svg2"
   xml:space="preserve"
   width="4096"
   height="4096"
   viewBox="0 0 4096 4096"
   sodipodi:docname="brighton-hove-albion-logo.svg"
   inkscape:export-filename="G:\Users\suitedoalex\sites\brighton-hove-albion-logo-0.png"
   inkscape:export-xdpi="96"
   inkscape:export-ydpi="96"
   inkscape:version="0.92.2 (5c3e80d, 2017-08-06)"><metadata
     id="metadata8"><rdf:RDF><cc:Work
         rdf:about=""><dc:format>image/svg+xml</dc:format><dc:type
           rdf:resource="http://purl.org/dc/dcmitype/StillImage" /><dc:title></dc:title></cc:Work></rdf:RDF></metadata><defs
     id="defs6"><clipPath
       clipPathUnits="userSpaceOnUse"
       id="clipPath24"><path
         d="M 0,595.276 H 419.528 V 0 H 0 Z"
         id="path22"
         inkscape:connector-curvature="0" /></clipPath><clipPath
       clipPathUnits="userSpaceOnUse"
       id="clipPath212"><path
         d="m 318.909,501.26 h 61.632 v 67.796 h -61.632 z"
         id="path210"
         inkscape:connector-curvature="0" /></clipPath><clipPath
       clipPathUnits="userSpaceOnUse"
       id="clipPath232"><path
         d="m 33.166,75.119 h 93.827 V 200.807 H 33.166 Z"
         id="path230"
         inkscape:connector-curvature="0" /></clipPath><clipPath
       clipPathUnits="userSpaceOnUse"
       id="clipPath244"><path
         d="m 146.457,75.119 h 86.457 v 125.688 h -86.457 z"
         id="path242"
         inkscape:connector-curvature="0" /></clipPath><clipPath
       clipPathUnits="userSpaceOnUse"
       id="clipPath256"><path
         d="M 261.023,75.119 H 347.48 V 200.807 H 261.023 Z"
         id="path254"
         inkscape:connector-curvature="0" /></clipPath></defs><sodipodi:namedview
     pagecolor="#ffffff"
     bordercolor="#666666"
     borderopacity="1"
     objecttolerance="10"
     gridtolerance="10"
     guidetolerance="10"
     inkscape:pageopacity="0"
     inkscape:pageshadow="2"
     inkscape:window-width="1920"
     inkscape:window-height="1017"
     id="namedview4"
     showgrid="false"
     inkscape:zoom="0.10512594"
     inkscape:cx="721.53754"
     inkscape:cy="-843.45064"
     inkscape:window-x="-8"
     inkscape:window-y="-8"
     inkscape:window-maximized="1"
     inkscape:current-layer="g10" /><g
     id="g10"
     inkscape:groupmode="layer"
     inkscape:label="2019-20-PL-Handbook-220819"
     transform="matrix(1.3333333,0,0,-1.3333333,0,4096)"><g
       id="g206"
       transform="matrix(35.842685,0,0,35.842685,-10999.079,-17645.503)"
       inkscape:export-filename="G:\Users\suitedoalex\sites\brighton-hove-albion-logo-4.png"
       inkscape:export-xdpi="13.037283"
       inkscape:export-ydpi="13.037283"><g
         id="g208"
         clip-path="url(#clipPath212)"><g
           id="g214"
           transform="translate(380.5408,535.1571)"><path
             d="m 0,0 c 0,-17.018 -13.797,-30.815 -30.816,-30.815 -17.02,0 -30.816,13.797 -30.816,30.815 0,17.021 13.796,30.817 30.816,30.817 C -13.797,30.817 0,17.021 0,0"
             style="fill:#ffffff;fill-opacity:1;fill-rule:nonzero;stroke:none"
             id="path216"
             inkscape:connector-curvature="0" /></g><g
           id="g218"
           transform="translate(377.1761,538.2397)"><path
             d="m 0,0 c -1.426,-0.003 -7.986,1.699 -8.918,1.703 -1.455,-0.009 -4.731,-1.808 -6.432,-2.913 -0.496,-0.325 -1.001,-0.616 -1.494,-0.874 0.128,-0.007 0.252,-0.017 0.376,-0.033 1.032,-0.125 1.952,-0.524 2.695,-1.068 0.956,-0.712 1.944,-1.587 2.538,-1.703 0.028,-0.002 0.061,-0.006 0.093,-0.01 h 0.004 c 0.843,-0.079 3.265,-0.677 3.188,-2.107 0,0 -1.684,0.508 -3.703,0.161 -0.793,-0.168 -1.953,-0.278 -3.711,-0.836 -1.663,-0.524 -6.001,-2.169 -9.394,-2.17 -2.581,0.003 -7.796,1.487 -10.806,1.743 -0.179,0.015 -0.356,0.022 -0.534,0.022 -2.292,0.004 -4.259,-1.2 -5.243,-1.214 -0.887,0 -2.442,0.153 -3.966,1.283 -1.158,0.865 -2.017,2.133 -2.027,3.07 -0.002,0.313 0.108,0.605 0.353,0.795 0.172,0.132 0.414,0.159 0.733,0.163 1.181,-0.002 3.52,-0.515 6.293,-0.514 1.65,0 3.445,0.18 5.225,0.755 0.413,0.133 1.659,0.424 2.459,0.625 0.212,-0.145 0.435,-0.301 0.685,-0.474 0.024,-0.017 0.05,-0.025 0.077,-0.025 0.045,0 0.087,0.022 0.114,0.06 0.044,0.062 0.027,0.148 -0.034,0.191 -1.541,1.075 -2.274,1.671 -4.854,1.664 -1.643,0 -4.047,-0.229 -7.938,-0.695 -2.527,-0.303 -4.478,-0.419 -5.982,-0.419 -2.507,-0.002 -3.775,0.327 -4.398,0.652 -0.382,0.202 -0.524,0.391 -0.575,0.507 0.903,0.056 5.405,0.37 9.385,1.252 4.515,1.002 11.586,3.828 14.881,3.822 1.226,0.009 3.355,-1.258 5.466,-2.677 2.119,-1.416 4.236,-2.974 5.586,-3.541 0.071,-0.028 0.151,0.004 0.181,0.074 0.029,0.07 -0.004,0.151 -0.074,0.18 -0.772,0.324 -1.849,1.012 -3.042,1.818 1.637,0.774 7.313,4.182 11.376,4.18 1.934,0.004 7.65,-1.623 9.368,-2.348 C -1.228,0.754 -0.657,0.492 -0.294,0.296 -0.112,0.199 0.017,0.119 0.095,0.059 0.119,0.041 0.138,0.023 0.153,0.01 0.117,0.003 0.065,0 0,0 m -0.196,0.479 c -0.374,0.2 -0.949,0.465 -1.773,0.811 -0.846,0.354 -2.599,0.913 -4.414,1.398 -2.533,9.265 -11.002,16.075 -21.068,16.075 -11.275,0 -20.551,-8.544 -21.717,-19.508 -1.11,-0.166 -2.171,-0.295 -3.092,-0.391 -1.824,-0.191 -3.091,-0.259 -3.094,-0.26 -0.067,-0.003 -0.121,-0.055 -0.128,-0.122 -10e-4,-0.005 -0.002,-0.012 -0.002,-0.023 -0.006,-0.101 0.065,-0.518 0.756,-0.871 0.69,-0.358 1.994,-0.683 4.525,-0.685 0.285,0 0.59,0.008 0.908,0.014 0,-12.063 9.78,-21.843 21.844,-21.843 12.063,0 21.843,9.78 21.843,21.843 0,1.373 -0.133,2.713 -0.374,4.014 2.247,-0.496 5.071,-1.137 5.982,-1.139 0.097,0.002 0.176,0.006 0.241,0.027 0.058,0.013 0.146,0.064 0.149,0.166 -0.035,0.197 -0.217,0.277 -0.586,0.494 m -14.701,-5.465 c 0.311,0 0.563,0.36 0.563,0.36 0,0 -0.252,0.359 -0.563,0.359 -0.311,0 -0.563,-0.359 -0.563,-0.359 0,0 0.252,-0.36 0.563,-0.36 m -19.98,27.584 0.817,-2.966 0.752,0.205 -0.818,2.968 0.952,0.262 -0.184,0.665 -2.655,-0.73 0.184,-0.666 z m -2.801,-4.388 -0.641,1.422 1.128,0.508 0.642,-1.42 0.019,0.006 0.692,0.313 -1.552,3.435 -0.711,-0.32 0.629,-1.388 -1.13,-0.51 -0.627,1.388 -0.709,-0.319 1.551,-3.435 z m -11.165,-7.953 0.41,0.628 c 0.085,0.131 0.183,0.206 0.294,0.229 h 0.001 c 0.027,0.006 0.055,0.009 0.084,0.009 0.083,0 0.163,-0.025 0.244,-0.077 0.107,-0.071 0.172,-0.161 0.198,-0.275 0.005,-0.027 0.008,-0.054 0.008,-0.08 0,-0.089 -0.031,-0.182 -0.096,-0.283 L -48.109,9.78 Z m -0.198,0.969 -0.383,-0.587 -0.685,0.445 0.382,0.588 c 0.084,0.128 0.179,0.203 0.284,0.229 0.031,0.009 0.06,0.013 0.091,0.013 0.074,0 0.149,-0.024 0.223,-0.072 0.104,-0.069 0.164,-0.156 0.182,-0.263 0.003,-0.02 0.006,-0.041 0.006,-0.062 0,-0.09 -0.033,-0.187 -0.1,-0.291 m 1.96,-1.133 c 0.156,0.24 0.236,0.479 0.236,0.716 0,0.052 -0.003,0.103 -0.012,0.157 -0.043,0.286 -0.21,0.525 -0.497,0.712 -0.173,0.112 -0.339,0.168 -0.498,0.168 -0.017,0 -0.033,0 -0.049,-10e-4 -0.157,-0.012 -0.3,-0.053 -0.426,-0.125 10e-4,0.016 10e-4,0.032 10e-4,0.05 0,0.107 -0.024,0.223 -0.07,0.344 -0.061,0.159 -0.173,0.292 -0.334,0.396 -0.196,0.129 -0.394,0.193 -0.591,0.193 -0.078,0 -0.156,-0.009 -0.234,-0.03 -0.276,-0.07 -0.516,-0.265 -0.718,-0.575 l -0.84,-1.288 3.157,-2.06 z m 4.395,7.305 c 0.226,-0.34 0.416,-0.588 0.568,-0.739 0.155,-0.154 0.347,-0.256 0.577,-0.302 0.096,-0.019 0.191,-0.028 0.284,-0.028 0.282,0 0.552,0.086 0.807,0.256 0.358,0.237 0.576,0.556 0.65,0.955 0.014,0.073 0.022,0.145 0.022,0.217 0,0.112 -0.018,0.221 -0.051,0.33 -0.056,0.178 -0.161,0.382 -0.314,0.612 l -0.308,0.462 -1.205,-0.802 0.359,-0.539 0.558,0.37 0.06,-0.093 c 0.054,-0.079 0.093,-0.161 0.12,-0.249 0.018,-0.058 0.027,-0.118 0.027,-0.174 0,-0.025 -0.002,-0.051 -0.006,-0.075 -0.031,-0.183 -0.128,-0.328 -0.294,-0.44 -0.118,-0.077 -0.234,-0.115 -0.347,-0.115 -0.045,0 -0.092,0.005 -0.137,0.018 -0.055,0.013 -0.102,0.032 -0.144,0.057 -0.042,0.027 -0.089,0.068 -0.143,0.123 -0.054,0.056 -0.113,0.128 -0.179,0.217 -0.066,0.091 -0.152,0.214 -0.256,0.371 -0.104,0.156 -0.185,0.284 -0.243,0.38 -0.058,0.097 -0.101,0.179 -0.13,0.247 -0.028,0.067 -0.046,0.127 -0.054,0.179 -0.004,0.024 -0.005,0.049 -0.005,0.073 0,0.026 0.002,0.052 0.006,0.077 0.023,0.17 0.112,0.306 0.274,0.414 0.113,0.074 0.22,0.116 0.318,0.126 0.025,0.002 0.052,0.005 0.08,0.005 0.088,0 0.191,-0.013 0.312,-0.037 l 0.019,-0.003 0.152,0.726 -0.02,0.004 c -0.141,0.029 -0.274,0.043 -0.396,0.043 -0.087,0 -0.17,-0.007 -0.249,-0.021 -0.185,-0.036 -0.385,-0.126 -0.599,-0.268 -0.34,-0.226 -0.551,-0.534 -0.63,-0.918 -0.019,-0.081 -0.027,-0.164 -0.027,-0.242 0,-0.142 0.027,-0.275 0.079,-0.405 0.084,-0.201 0.238,-0.471 0.465,-0.812 m 11.225,5.501 c 0.005,0.073 0.015,0.134 0.031,0.183 0.017,0.05 0.04,0.095 0.069,0.135 0.043,0.067 0.103,0.121 0.178,0.165 0.076,0.043 0.161,0.07 0.257,0.083 0.033,0.004 0.065,0.006 0.096,0.006 0.149,0 0.275,-0.046 0.382,-0.14 0.042,-0.037 0.077,-0.076 0.104,-0.12 0.029,-0.043 0.054,-0.1 0.076,-0.168 0.023,-0.068 0.044,-0.158 0.063,-0.271 0.019,-0.113 0.04,-0.262 0.063,-0.444 0.023,-0.181 0.038,-0.329 0.047,-0.445 0.006,-0.073 0.009,-0.139 0.009,-0.194 0,-0.032 -0.001,-0.061 -0.003,-0.086 -0.005,-0.072 -0.015,-0.132 -0.031,-0.182 -0.018,-0.05 -0.041,-0.096 -0.073,-0.14 -0.097,-0.141 -0.238,-0.223 -0.431,-0.248 -0.031,-0.002 -0.063,-0.005 -0.093,-0.005 -0.061,0 -0.12,0.007 -0.176,0.023 -0.084,0.024 -0.155,0.063 -0.214,0.116 -0.042,0.036 -0.076,0.075 -0.101,0.117 -0.026,0.041 -0.05,0.098 -0.073,0.17 -0.023,0.073 -0.044,0.163 -0.063,0.273 -0.019,0.109 -0.041,0.257 -0.064,0.443 -0.024,0.189 -0.038,0.338 -0.047,0.45 -0.006,0.071 -0.009,0.134 -0.009,0.19 0,0.032 10e-4,0.061 0.003,0.089 m -0.541,-1.739 c 0.068,-0.206 0.196,-0.383 0.381,-0.528 0.156,-0.119 0.323,-0.202 0.501,-0.25 0.115,-0.032 0.236,-0.046 0.365,-0.046 0.071,0 0.142,0.004 0.216,0.012 0.211,0.026 0.394,0.084 0.554,0.173 0.159,0.089 0.299,0.211 0.421,0.366 0.15,0.188 0.235,0.392 0.249,0.608 0.003,0.048 0.006,0.101 0.006,0.158 0,0.2 -0.02,0.456 -0.059,0.77 -0.052,0.409 -0.11,0.715 -0.176,0.919 -0.067,0.204 -0.199,0.38 -0.39,0.524 -0.155,0.119 -0.322,0.204 -0.498,0.251 -0.114,0.031 -0.236,0.047 -0.363,0.047 -0.07,0 -0.142,-0.005 -0.216,-0.014 -0.21,-0.026 -0.396,-0.083 -0.555,-0.174 -0.162,-0.089 -0.303,-0.211 -0.425,-0.364 -0.145,-0.182 -0.225,-0.384 -0.242,-0.603 -0.004,-0.052 -0.006,-0.11 -0.006,-0.175 0,-0.199 0.019,-0.45 0.058,-0.76 0.05,-0.404 0.109,-0.709 0.179,-0.914 m -11.07,-6.512 0.576,0.493 -2.449,2.863 -0.592,-0.506 2.448,-2.864 z m -3.69,-0.721 -0.696,0.637 0.456,0.497 c 0.105,0.114 0.22,0.175 0.348,0.188 h 0.001 c 0.012,0 0.027,10e-4 0.039,10e-4 0.113,0 0.213,-0.042 0.307,-0.128 0.106,-0.096 0.156,-0.205 0.156,-0.335 0,-0.128 -0.05,-0.249 -0.156,-0.363 z m 1.576,-1.443 -1.097,1.004 0.336,0.368 1.593,-0.46 0.01,0.011 0.6,0.654 -1.766,0.466 c 0.052,0.129 0.079,0.264 0.079,0.403 0,0.063 -0.006,0.126 -0.016,0.19 -0.037,0.213 -0.149,0.408 -0.335,0.578 -0.117,0.107 -0.247,0.189 -0.387,0.241 -0.124,0.048 -0.252,0.071 -0.382,0.071 -0.02,0 -0.039,0 -0.058,-0.001 -0.152,-0.008 -0.304,-0.05 -0.454,-0.124 -0.149,-0.075 -0.288,-0.183 -0.416,-0.323 l -1.014,-1.107 2.782,-2.545 z m 33.316,3.374 c 0,0.047 0.007,0.09 0.018,0.13 0.014,0.047 0.039,0.104 0.076,0.17 0.038,0.063 0.09,0.141 0.159,0.228 0.068,0.088 0.163,0.204 0.285,0.347 0.123,0.142 0.222,0.257 0.299,0.338 0.078,0.082 0.145,0.146 0.203,0.191 0.056,0.047 0.108,0.08 0.156,0.101 0.048,0.021 0.096,0.035 0.147,0.04 0.024,0.005 0.049,0.008 0.075,0.008 0.053,0 0.109,-0.009 0.166,-0.027 0.083,-0.027 0.161,-0.071 0.234,-0.134 0.147,-0.127 0.221,-0.273 0.224,-0.443 v -0.025 c 0,-0.045 -0.006,-0.091 -0.017,-0.134 -0.014,-0.05 -0.038,-0.106 -0.074,-0.168 -0.035,-0.064 -0.087,-0.14 -0.158,-0.23 -0.07,-0.091 -0.165,-0.206 -0.284,-0.347 -0.119,-0.137 -0.217,-0.248 -0.297,-0.333 -0.079,-0.085 -0.147,-0.15 -0.203,-0.195 -0.056,-0.043 -0.108,-0.076 -0.155,-0.098 -0.048,-0.021 -0.099,-0.034 -0.153,-0.041 -0.028,-0.004 -0.055,-0.005 -0.082,-0.005 -0.138,0 -0.267,0.051 -0.391,0.156 -0.075,0.063 -0.13,0.134 -0.169,0.211 -0.039,0.077 -0.059,0.156 -0.059,0.233 z m -0.61,0.632 c -0.09,-0.162 -0.137,-0.342 -0.137,-0.538 0,-0.031 0.003,-0.065 0.005,-0.099 0.017,-0.196 0.068,-0.375 0.154,-0.539 0.084,-0.164 0.207,-0.315 0.369,-0.45 0.16,-0.139 0.326,-0.236 0.5,-0.294 0.14,-0.045 0.286,-0.069 0.441,-0.069 0.037,0 0.074,0.002 0.114,0.004 0.241,0.017 0.447,0.093 0.616,0.226 0.167,0.134 0.383,0.356 0.65,0.666 0.267,0.314 0.452,0.564 0.559,0.749 0.086,0.156 0.13,0.326 0.13,0.516 0,0.04 -0.003,0.082 -0.007,0.125 -0.016,0.195 -0.068,0.375 -0.15,0.537 -0.084,0.162 -0.208,0.313 -0.367,0.45 -0.162,0.137 -0.329,0.235 -0.503,0.293 -0.142,0.048 -0.29,0.072 -0.445,0.072 -0.038,0 -0.075,-10e-4 -0.112,-0.005 -0.231,-0.016 -0.435,-0.092 -0.607,-0.227 -0.171,-0.135 -0.389,-0.357 -0.655,-0.668 -0.265,-0.311 -0.45,-0.561 -0.555,-0.749 m 2.969,-4.152 0.015,0.007 3.649,1.533 -0.538,0.611 -2.277,-1.015 1.292,2.131 -0.534,0.607 -1.991,-3.437 z m 1.162,-1.417 1.38,-2.099 0.577,0.378 -0.963,1.466 0.722,0.475 0.82,-1.249 0.576,0.38 -0.821,1.246 0.696,0.457 0.963,-1.465 0.577,0.38 -1.392,2.117 -3.146,-2.068 z m -19.088,11.874 1.465,-2.238 h 0.69 v 3.767 h -0.779 v -2.233 l -1.466,2.233 h -0.69 v -3.767 h 0.78 z m 12.698,-4.1 1.055,-0.65 -0.817,-1.329 0.018,-0.011 0.646,-0.397 1.975,3.207 -0.664,0.409 -0.799,-1.297 -1.055,0.651 0.799,1.296 -0.664,0.409 -1.973,-3.205 0.662,-0.411 z m -6.342,2.186 c 0.036,0.114 0.096,0.199 0.177,0.257 0.079,0.058 0.19,0.107 0.332,0.149 l 0.43,-1.03 c -0.1,-0.041 -0.193,-0.062 -0.28,-0.068 h -0.055 c -0.075,0.002 -0.154,0.016 -0.236,0.043 -0.15,0.05 -0.26,0.135 -0.331,0.257 -0.045,0.078 -0.067,0.159 -0.064,0.243 0.001,0.048 0.01,0.099 0.027,0.149 m 0.861,1.573 c 0.027,0.082 0.072,0.139 0.137,0.172 0.036,0.02 0.075,0.027 0.12,0.026 0.033,0 0.07,-0.006 0.108,-0.021 0.088,-0.027 0.146,-0.074 0.179,-0.143 0.02,-0.039 0.03,-0.082 0.028,-0.124 0,-0.031 -0.005,-0.061 -0.016,-0.092 -0.016,-0.052 -0.05,-0.094 -0.099,-0.13 -0.051,-0.036 -0.115,-0.065 -0.19,-0.086 -0.023,-0.01 -0.051,-0.018 -0.088,-0.027 -0.029,-0.009 -0.054,-0.015 -0.077,-0.019 -0.051,0.115 -0.084,0.204 -0.102,0.269 -0.009,0.036 -0.014,0.07 -0.013,0.1 0.001,0.027 0.004,0.052 0.013,0.075 m -0.692,-2.849 c 0.167,-0.056 0.317,-0.085 0.447,-0.089 0.041,-10e-4 0.078,0 0.114,0.004 0.154,0.017 0.308,0.055 0.466,0.109 l 0.005,0.003 0.155,-0.378 0.889,-0.299 -0.411,0.988 c 0.161,0.096 0.3,0.224 0.418,0.38 0.121,0.161 0.226,0.358 0.318,0.594 l 0.008,0.021 -0.659,0.217 -0.008,-0.018 c -0.093,-0.252 -0.212,-0.43 -0.357,-0.539 l -0.355,0.86 c 0.044,0.011 0.094,0.027 0.149,0.046 0.065,0.019 0.114,0.036 0.148,0.048 0.147,0.047 0.271,0.111 0.369,0.19 0.1,0.078 0.171,0.186 0.214,0.318 0.03,0.095 0.047,0.188 0.05,0.279 0.004,0.146 -0.031,0.287 -0.104,0.421 -0.118,0.216 -0.321,0.37 -0.604,0.464 -0.141,0.046 -0.274,0.07 -0.398,0.073 -0.14,0.003 -0.272,-0.02 -0.393,-0.072 -0.226,-0.099 -0.383,-0.275 -0.464,-0.525 -0.029,-0.089 -0.044,-0.175 -0.047,-0.26 -0.002,-0.062 0.004,-0.122 0.017,-0.183 0.028,-0.132 0.073,-0.272 0.134,-0.417 -0.224,-0.062 -0.42,-0.147 -0.586,-0.257 -0.173,-0.116 -0.293,-0.28 -0.363,-0.488 -0.046,-0.143 -0.072,-0.278 -0.076,-0.405 -0.004,-0.182 0.035,-0.35 0.118,-0.503 0.142,-0.258 0.412,-0.453 0.806,-0.582 m -6.539,-51.943 c -16.158,0 -29.255,13.099 -29.255,29.258 0,16.156 13.097,29.255 29.255,29.255 16.158,0 29.255,-13.099 29.255,-29.255 0,-16.159 -13.097,-29.258 -29.255,-29.258 m 0,59.683 c -16.804,0 -30.426,-13.622 -30.426,-30.425 0,-16.804 13.622,-30.427 30.426,-30.427 16.803,0 30.425,13.623 30.425,30.427 0,16.803 -13.622,30.425 -30.425,30.425 m 0.771,-54.094 0.183,-3.852 h 0.021 l 0.765,0.039 -0.185,3.85 z m -6.605,0.713 -0.764,0.185 -0.896,-3.752 0.02,-0.005 2.429,-0.581 0.163,0.688 -1.683,0.401 z m -3.656,-1.464 -0.824,0.338 0.913,1.033 z m -2.514,-0.423 0.761,-0.311 0.469,0.539 1.227,-0.503 -0.048,-0.71 0.014,-0.007 0.746,-0.306 0.159,4.105 -0.567,0.23 z m 17.231,-0.998 c -0.001,-0.073 -0.008,-0.135 -0.023,-0.186 -0.013,-0.051 -0.034,-0.101 -0.065,-0.146 -0.089,-0.152 -0.227,-0.241 -0.419,-0.277 -0.045,-0.006 -0.088,-0.011 -0.13,-0.011 -0.05,0 -0.097,0.005 -0.143,0.016 -0.086,0.019 -0.16,0.056 -0.221,0.107 -0.046,0.036 -0.082,0.072 -0.11,0.114 -0.029,0.041 -0.057,0.099 -0.084,0.171 -0.026,0.073 -0.052,0.164 -0.078,0.274 -0.025,0.113 -0.054,0.264 -0.087,0.452 -0.034,0.191 -0.059,0.343 -0.073,0.459 -0.015,0.106 -0.021,0.197 -0.021,0.269 v 0.015 c 0.002,0.074 0.009,0.139 0.022,0.189 0.013,0.051 0.034,0.098 0.061,0.139 0.042,0.073 0.098,0.131 0.17,0.18 0.075,0.048 0.159,0.081 0.256,0.098 0.045,0.008 0.088,0.014 0.131,0.014 0.135,-0.003 0.254,-0.044 0.357,-0.127 0.045,-0.034 0.083,-0.074 0.112,-0.118 0.031,-0.043 0.06,-0.099 0.086,-0.166 0.027,-0.069 0.053,-0.161 0.078,-0.275 0.026,-0.114 0.056,-0.265 0.089,-0.45 0.031,-0.185 0.056,-0.336 0.072,-0.454 0.013,-0.108 0.02,-0.199 0.02,-0.269 z m 0.454,1.806 c -0.08,0.206 -0.22,0.38 -0.42,0.515 -0.164,0.116 -0.337,0.192 -0.516,0.233 -0.095,0.022 -0.191,0.031 -0.293,0.031 -0.095,0 -0.192,-0.009 -0.295,-0.029 -0.209,-0.034 -0.393,-0.103 -0.548,-0.202 -0.159,-0.101 -0.295,-0.233 -0.408,-0.396 -0.136,-0.194 -0.207,-0.404 -0.211,-0.628 -0.001,-0.013 -0.001,-0.028 -0.001,-0.041 0,-0.219 0.036,-0.524 0.104,-0.911 0.072,-0.413 0.15,-0.722 0.229,-0.926 0.081,-0.208 0.219,-0.381 0.413,-0.521 0.164,-0.113 0.337,-0.19 0.52,-0.231 0.093,-0.02 0.19,-0.029 0.291,-0.029 0.095,0 0.195,0.007 0.295,0.026 0.211,0.038 0.393,0.104 0.55,0.204 0.155,0.099 0.291,0.232 0.405,0.394 0.141,0.203 0.214,0.415 0.218,0.636 -10e-4,0.009 0,0.019 0,0.031 0,0.215 -0.037,0.52 -0.105,0.915 -0.075,0.416 -0.15,0.723 -0.228,0.929 m -7.038,-0.74 c -0.01,-0.126 -0.057,-0.222 -0.145,-0.292 -0.074,-0.058 -0.172,-0.09 -0.294,-0.09 -0.021,0 -0.042,10e-4 -0.063,0.003 l -0.707,0.056 0.067,0.835 0.705,-0.056 c 0.154,-0.012 0.265,-0.06 0.34,-0.141 0.066,-0.074 0.099,-0.16 0.099,-0.269 0,-0.015 0,-0.029 -0.002,-0.046 m -0.07,-1.574 c -0.01,-0.131 -0.059,-0.233 -0.149,-0.313 -0.075,-0.065 -0.175,-0.1 -0.302,-0.1 -0.02,0 -0.04,0 -0.061,10e-4 l -0.755,0.061 0.072,0.893 0.755,-0.059 c 0.156,-0.013 0.269,-0.066 0.343,-0.153 0.066,-0.079 0.098,-0.173 0.098,-0.283 0,-0.014 0,-0.031 -0.001,-0.047 m -0.252,2.728 -1.549,0.124 -0.304,-3.845 1.612,-0.128 c 0.048,-0.003 0.096,-0.006 0.142,-0.006 h 0.003 c 0.289,0 0.536,0.078 0.736,0.232 0.235,0.179 0.365,0.447 0.392,0.796 0.003,0.039 0.005,0.075 0.005,0.11 0,0.183 -0.04,0.336 -0.118,0.463 -0.087,0.135 -0.193,0.242 -0.317,0.322 0.112,0.052 0.217,0.137 0.317,0.255 0.111,0.133 0.175,0.298 0.19,0.493 0.003,0.042 0.005,0.08 0.005,0.119 0,0.278 -0.086,0.513 -0.258,0.704 -0.196,0.213 -0.482,0.332 -0.856,0.361 m 10.306,1.55 0.771,-2.154 -2.163,1.655 -0.656,-0.234 1.297,-3.632 0.741,0.265 -0.771,2.159 2.164,-1.661 0.011,0.006 0.645,0.229 -1.298,3.63 z"
             style="fill:#1e59ae;fill-opacity:1;fill-rule:nonzero;stroke:none"
             id="path220"
             inkscape:connector-curvature="0" /></g><g
           id="g222"
           transform="translate(365.5228,531.3953)"><path
             d="m 0,0 c 2.019,0.347 3.704,-0.161 3.704,-0.161 0.079,1.49 -2.549,2.077 -3.286,2.117 0,0 0.38,-0.792 -1.672,-0.949 0,0 -0.96,0.025 -1.351,-0.329 0,0 1.89,0.144 2.554,-0.593 z"
             style="fill:#fab20b;fill-opacity:1;fill-rule:nonzero;stroke:none"
             id="path224"
             inkscape:connector-curvature="0" /></g></g></g></g></svg>